<mxfile host="app.diagrams.net" agent="Mozilla/5.0 (Windows NT 10.0; Win64; x64) AppleWebKit/537.36 (KHTML, like Gecko) Chrome/134.0.0.0 Safari/537.36" version="26.2.9">
  <diagram name="Page-1" id="jUmx4Mk0zISD2Ex7xzXe">
    <mxGraphModel dx="1428" dy="743" grid="1" gridSize="10" guides="1" tooltips="1" connect="1" arrows="1" fold="1" page="1" pageScale="1" pageWidth="1169" pageHeight="1654" math="0" shadow="0">
      <root>
        <mxCell id="0" />
        <mxCell id="1" parent="0" />
        <mxCell id="RzOlGhgpHy_9QOzsnayQ-21" style="edgeStyle=orthogonalEdgeStyle;rounded=0;orthogonalLoop=1;jettySize=auto;html=1;" parent="1" edge="1">
          <mxGeometry relative="1" as="geometry">
            <mxPoint x="720" y="341" as="targetPoint" />
            <mxPoint x="440" y="341" as="sourcePoint" />
            <Array as="points">
              <mxPoint x="580" y="341" />
              <mxPoint x="580" y="341" />
            </Array>
          </mxGeometry>
        </mxCell>
        <mxCell id="RzOlGhgpHy_9QOzsnayQ-3" value="" style="pointerEvents=1;verticalLabelPosition=bottom;shadow=0;dashed=0;align=center;html=1;verticalAlign=top;shape=mxgraph.electrical.inductors.transformer;direction=north;rotation=-90;" parent="1" vertex="1">
          <mxGeometry x="340" y="298.5" width="84" height="85" as="geometry" />
        </mxCell>
        <mxCell id="RzOlGhgpHy_9QOzsnayQ-7" value="&lt;b&gt;&lt;font style=&quot;font-size: 16px;&quot;&gt;230V&lt;/font&gt;&lt;/b&gt;" style="text;html=1;align=center;verticalAlign=middle;resizable=0;points=[];autosize=1;strokeColor=none;fillColor=none;" parent="1" vertex="1">
          <mxGeometry x="262" y="326" width="60" height="30" as="geometry" />
        </mxCell>
        <mxCell id="RzOlGhgpHy_9QOzsnayQ-16" value="" style="endArrow=none;dashed=1;html=1;rounded=0;" parent="1" edge="1">
          <mxGeometry width="50" height="50" relative="1" as="geometry">
            <mxPoint x="440" y="401" as="sourcePoint" />
            <mxPoint x="440" y="281" as="targetPoint" />
          </mxGeometry>
        </mxCell>
        <mxCell id="RzOlGhgpHy_9QOzsnayQ-17" value="" style="endArrow=none;dashed=1;html=1;rounded=0;" parent="1" edge="1">
          <mxGeometry width="50" height="50" relative="1" as="geometry">
            <mxPoint x="440" y="401" as="sourcePoint" />
            <mxPoint x="320" y="401" as="targetPoint" />
          </mxGeometry>
        </mxCell>
        <mxCell id="RzOlGhgpHy_9QOzsnayQ-18" value="" style="endArrow=none;dashed=1;html=1;rounded=0;" parent="1" edge="1">
          <mxGeometry width="50" height="50" relative="1" as="geometry">
            <mxPoint x="320" y="401" as="sourcePoint" />
            <mxPoint x="320" y="281" as="targetPoint" />
          </mxGeometry>
        </mxCell>
        <mxCell id="RzOlGhgpHy_9QOzsnayQ-19" value="" style="endArrow=none;dashed=1;html=1;rounded=0;" parent="1" edge="1">
          <mxGeometry width="50" height="50" relative="1" as="geometry">
            <mxPoint x="320" y="281" as="sourcePoint" />
            <mxPoint x="440" y="281" as="targetPoint" />
          </mxGeometry>
        </mxCell>
        <mxCell id="RzOlGhgpHy_9QOzsnayQ-20" value="&lt;b&gt;&lt;font style=&quot;font-size: 14px;&quot;&gt;Power Supply&lt;br&gt;50W/5V&lt;/font&gt;&lt;/b&gt;" style="text;html=1;align=center;verticalAlign=middle;resizable=0;points=[];autosize=1;strokeColor=none;fillColor=none;" parent="1" vertex="1">
          <mxGeometry x="322" y="226" width="120" height="50" as="geometry" />
        </mxCell>
        <mxCell id="RzOlGhgpHy_9QOzsnayQ-24" value="" style="endArrow=none;dashed=1;html=1;rounded=0;" parent="1" edge="1">
          <mxGeometry width="50" height="50" relative="1" as="geometry">
            <mxPoint x="720" y="421" as="sourcePoint" />
            <mxPoint x="720" y="261" as="targetPoint" />
          </mxGeometry>
        </mxCell>
        <mxCell id="RzOlGhgpHy_9QOzsnayQ-25" value="" style="endArrow=none;dashed=1;html=1;rounded=0;" parent="1" edge="1">
          <mxGeometry width="50" height="50" relative="1" as="geometry">
            <mxPoint x="880" y="421" as="sourcePoint" />
            <mxPoint x="880" y="261" as="targetPoint" />
          </mxGeometry>
        </mxCell>
        <mxCell id="RzOlGhgpHy_9QOzsnayQ-26" value="" style="endArrow=none;dashed=1;html=1;rounded=0;" parent="1" edge="1">
          <mxGeometry width="50" height="50" relative="1" as="geometry">
            <mxPoint x="880" y="261" as="sourcePoint" />
            <mxPoint x="720" y="261" as="targetPoint" />
          </mxGeometry>
        </mxCell>
        <mxCell id="RzOlGhgpHy_9QOzsnayQ-27" value="" style="endArrow=none;dashed=1;html=1;rounded=0;" parent="1" edge="1">
          <mxGeometry width="50" height="50" relative="1" as="geometry">
            <mxPoint x="880" y="421" as="sourcePoint" />
            <mxPoint x="720" y="421" as="targetPoint" />
          </mxGeometry>
        </mxCell>
        <mxCell id="RzOlGhgpHy_9QOzsnayQ-28" value="Raspberry Pi 5 + Display" style="text;html=1;align=center;verticalAlign=middle;resizable=0;points=[];autosize=1;strokeColor=none;fillColor=none;fontStyle=1" parent="1" vertex="1">
          <mxGeometry x="732" y="226" width="160" height="30" as="geometry" />
        </mxCell>
        <mxCell id="RzOlGhgpHy_9QOzsnayQ-29" value="" style="sketch=0;aspect=fixed;pointerEvents=1;shadow=0;dashed=0;html=1;strokeColor=none;labelPosition=center;verticalLabelPosition=bottom;verticalAlign=top;align=center;fillColor=#00188D;shape=mxgraph.mscae.enterprise.performance_monitor" parent="1" vertex="1">
          <mxGeometry x="732" y="292.76" width="134" height="96.48" as="geometry" />
        </mxCell>
        <mxCell id="RzOlGhgpHy_9QOzsnayQ-30" value="" style="sketch=0;aspect=fixed;pointerEvents=1;shadow=0;dashed=0;html=1;strokeColor=none;labelPosition=center;verticalLabelPosition=bottom;verticalAlign=top;align=center;fillColor=#00188D;shape=mxgraph.mscae.enterprise.plug_and_play;rotation=-180;" parent="1" vertex="1">
          <mxGeometry x="210" y="303.5" width="60" height="75" as="geometry" />
        </mxCell>
        <mxCell id="RzOlGhgpHy_9QOzsnayQ-31" value="MCU" style="shadow=0;dashed=0;align=center;html=1;strokeWidth=1;shape=mxgraph.electrical.logic_gates.qfp_ic;whiteSpace=wrap;labelNames=,,,,,,,,i,j,k,l,m,n,o,p,q,r,s,t,u,v,w,x,y,z,a1,b1,c1,d1,e1,f1,g1,h1,i1,j1,k1,l1,m1,n1;noLabel=0;overflow=visible;movableLabel=0;backgroundOutline=0;metaEdit=0;dropTarget=0;snapToPoint=0;pinSpacing=30;pinLabelType=cust;startPin=sw;pinStyle=line;" parent="1" vertex="1">
          <mxGeometry x="530" y="441" width="100" height="100" as="geometry" />
        </mxCell>
        <mxCell id="RzOlGhgpHy_9QOzsnayQ-32" value="" style="endArrow=none;dashed=1;html=1;rounded=0;" parent="1" edge="1">
          <mxGeometry width="50" height="50" relative="1" as="geometry">
            <mxPoint x="639" y="551" as="sourcePoint" />
            <mxPoint x="520" y="551" as="targetPoint" />
          </mxGeometry>
        </mxCell>
        <mxCell id="RzOlGhgpHy_9QOzsnayQ-33" value="" style="endArrow=none;dashed=1;html=1;rounded=0;" parent="1" edge="1">
          <mxGeometry width="50" height="50" relative="1" as="geometry">
            <mxPoint x="520" y="431" as="sourcePoint" />
            <mxPoint x="520" y="551" as="targetPoint" />
          </mxGeometry>
        </mxCell>
        <mxCell id="RzOlGhgpHy_9QOzsnayQ-34" value="" style="endArrow=none;dashed=1;html=1;rounded=0;" parent="1" edge="1">
          <mxGeometry width="50" height="50" relative="1" as="geometry">
            <mxPoint x="640" y="551" as="sourcePoint" />
            <mxPoint x="640" y="431" as="targetPoint" />
          </mxGeometry>
        </mxCell>
        <mxCell id="RzOlGhgpHy_9QOzsnayQ-35" value="" style="endArrow=none;dashed=1;html=1;rounded=0;" parent="1" edge="1">
          <mxGeometry width="50" height="50" relative="1" as="geometry">
            <mxPoint x="640" y="431" as="sourcePoint" />
            <mxPoint x="520" y="431" as="targetPoint" />
          </mxGeometry>
        </mxCell>
        <mxCell id="RzOlGhgpHy_9QOzsnayQ-41" style="edgeStyle=orthogonalEdgeStyle;rounded=0;orthogonalLoop=1;jettySize=auto;html=1;" parent="1" edge="1">
          <mxGeometry relative="1" as="geometry">
            <mxPoint x="579.5" y="431" as="targetPoint" />
            <mxPoint x="579.5" y="341" as="sourcePoint" />
            <Array as="points">
              <mxPoint x="579.5" y="411" />
            </Array>
          </mxGeometry>
        </mxCell>
        <mxCell id="RzOlGhgpHy_9QOzsnayQ-42" value="ESP-32 Firebeetle 2" style="text;html=1;align=center;verticalAlign=middle;resizable=0;points=[];autosize=1;strokeColor=none;fillColor=none;fontStyle=1" parent="1" vertex="1">
          <mxGeometry x="515" y="551" width="130" height="30" as="geometry" />
        </mxCell>
        <mxCell id="RzOlGhgpHy_9QOzsnayQ-43" value="" style="verticalLabelPosition=bottom;aspect=fixed;html=1;verticalAlign=top;fillColor=strokeColor;align=center;outlineConnect=0;shape=mxgraph.fluid_power.x11850;points=[[0.5,1,0]];rotation=-180;" parent="1" vertex="1">
          <mxGeometry x="400" y="771" width="37.34" height="56.18" as="geometry" />
        </mxCell>
        <mxCell id="RzOlGhgpHy_9QOzsnayQ-44" value="" style="verticalLabelPosition=bottom;aspect=fixed;html=1;verticalAlign=top;fillColor=strokeColor;align=center;outlineConnect=0;shape=mxgraph.fluid_power.x11820;points=[[0.5,1,0]];rotation=-180;" parent="1" vertex="1">
          <mxGeometry x="322" y="601" width="37.34" height="56.1" as="geometry" />
        </mxCell>
        <mxCell id="RzOlGhgpHy_9QOzsnayQ-45" style="edgeStyle=orthogonalEdgeStyle;rounded=0;orthogonalLoop=1;jettySize=auto;html=1;entryX=0.5;entryY=1;entryDx=0;entryDy=0;entryPerimeter=0;" parent="1" target="RzOlGhgpHy_9QOzsnayQ-44" edge="1">
          <mxGeometry relative="1" as="geometry">
            <mxPoint x="520" y="491" as="sourcePoint" />
            <Array as="points">
              <mxPoint x="341" y="491" />
            </Array>
          </mxGeometry>
        </mxCell>
        <mxCell id="RzOlGhgpHy_9QOzsnayQ-47" style="edgeStyle=orthogonalEdgeStyle;rounded=0;orthogonalLoop=1;jettySize=auto;html=1;entryX=0;entryY=0.5;entryDx=0;entryDy=0;entryPerimeter=0;" parent="1" target="RzOlGhgpHy_9QOzsnayQ-70" edge="1">
          <mxGeometry relative="1" as="geometry">
            <mxPoint x="520" y="541" as="sourcePoint" />
            <mxPoint x="419" y="631" as="targetPoint" />
            <Array as="points">
              <mxPoint x="419" y="541" />
            </Array>
          </mxGeometry>
        </mxCell>
        <mxCell id="RzOlGhgpHy_9QOzsnayQ-48" value="I2C Digital&lt;br&gt;Pressure Sensor" style="text;html=1;align=center;verticalAlign=middle;resizable=0;points=[];autosize=1;strokeColor=none;fillColor=none;fontStyle=1" parent="1" vertex="1">
          <mxGeometry x="210" y="617.1800000000001" width="110" height="40" as="geometry" />
        </mxCell>
        <mxCell id="RzOlGhgpHy_9QOzsnayQ-49" value="3.3V" style="text;html=1;align=center;verticalAlign=middle;resizable=0;points=[];autosize=1;strokeColor=none;fillColor=none;fontStyle=1" parent="1" vertex="1">
          <mxGeometry x="393.67" y="471" width="50" height="30" as="geometry" />
        </mxCell>
        <mxCell id="RzOlGhgpHy_9QOzsnayQ-50" value="RTD Sensor" style="text;html=1;align=center;verticalAlign=middle;resizable=0;points=[];autosize=1;strokeColor=none;fillColor=none;fontStyle=1" parent="1" vertex="1">
          <mxGeometry x="443.66999999999996" y="791" width="90" height="30" as="geometry" />
        </mxCell>
        <mxCell id="RzOlGhgpHy_9QOzsnayQ-51" value="W" style="verticalLabelPosition=middle;shadow=0;dashed=0;align=center;html=1;verticalAlign=middle;strokeWidth=1;shape=ellipse;aspect=fixed;fontSize=40;fontStyle=1" parent="1" vertex="1">
          <mxGeometry x="710" y="617.1800000000001" width="61" height="61" as="geometry" />
        </mxCell>
        <mxCell id="RzOlGhgpHy_9QOzsnayQ-53" style="edgeStyle=orthogonalEdgeStyle;rounded=0;orthogonalLoop=1;jettySize=auto;html=1;entryX=0.5;entryY=0;entryDx=0;entryDy=0;" parent="1" target="RzOlGhgpHy_9QOzsnayQ-51" edge="1">
          <mxGeometry relative="1" as="geometry">
            <mxPoint x="640" y="541" as="sourcePoint" />
            <mxPoint x="741" y="571" as="targetPoint" />
            <Array as="points">
              <mxPoint x="741" y="541" />
              <mxPoint x="741" y="617" />
            </Array>
          </mxGeometry>
        </mxCell>
        <mxCell id="RzOlGhgpHy_9QOzsnayQ-55" value="&lt;b&gt;I2C Wattmeter&lt;/b&gt;" style="text;html=1;align=center;verticalAlign=middle;resizable=0;points=[];autosize=1;strokeColor=none;fillColor=none;" parent="1" vertex="1">
          <mxGeometry x="690.5" y="678.1800000000001" width="100" height="30" as="geometry" />
        </mxCell>
        <mxCell id="RzOlGhgpHy_9QOzsnayQ-58" value="" style="ellipse;whiteSpace=wrap;html=1;aspect=fixed;" parent="1" vertex="1">
          <mxGeometry x="810.0000000000001" y="617.1800000000001" width="60" height="60" as="geometry" />
        </mxCell>
        <mxCell id="RzOlGhgpHy_9QOzsnayQ-57" value="" style="pointerEvents=1;verticalLabelPosition=bottom;shadow=0;dashed=0;align=center;html=1;verticalAlign=top;shape=mxgraph.electrical.waveforms.sine_wave;" parent="1" vertex="1">
          <mxGeometry x="832.5" y="657.1800000000001" width="16" height="14.77" as="geometry" />
        </mxCell>
        <mxCell id="RzOlGhgpHy_9QOzsnayQ-61" value="W" style="text;html=1;align=center;verticalAlign=middle;resizable=0;points=[];autosize=1;strokeColor=none;fillColor=none;fontStyle=1;fontSize=40;" parent="1" vertex="1">
          <mxGeometry x="810" y="611.95" width="60" height="60" as="geometry" />
        </mxCell>
        <mxCell id="RzOlGhgpHy_9QOzsnayQ-62" value="Analog current sensor" style="text;html=1;align=center;verticalAlign=middle;resizable=0;points=[];autosize=1;strokeColor=none;fillColor=none;fontStyle=1" parent="1" vertex="1">
          <mxGeometry x="879" y="632.6800000000001" width="140" height="30" as="geometry" />
        </mxCell>
        <mxCell id="RzOlGhgpHy_9QOzsnayQ-67" style="edgeStyle=orthogonalEdgeStyle;rounded=0;orthogonalLoop=1;jettySize=auto;html=1;" parent="1" edge="1">
          <mxGeometry relative="1" as="geometry">
            <mxPoint x="640" y="501" as="sourcePoint" />
            <mxPoint x="840" y="617.1800000000001" as="targetPoint" />
            <Array as="points">
              <mxPoint x="740" y="501" />
              <mxPoint x="840" y="501" />
            </Array>
          </mxGeometry>
        </mxCell>
        <mxCell id="RzOlGhgpHy_9QOzsnayQ-68" value="ADC (3.3-5V)" style="text;html=1;align=center;verticalAlign=middle;resizable=0;points=[];autosize=1;strokeColor=none;fillColor=none;fontStyle=1" parent="1" vertex="1">
          <mxGeometry x="675" y="481" width="100" height="30" as="geometry" />
        </mxCell>
        <mxCell id="RzOlGhgpHy_9QOzsnayQ-69" value="SPI" style="text;html=1;align=center;verticalAlign=middle;resizable=0;points=[];autosize=1;strokeColor=none;fillColor=none;fontStyle=1" parent="1" vertex="1">
          <mxGeometry x="447" y="521" width="40" height="30" as="geometry" />
        </mxCell>
        <mxCell id="RzOlGhgpHy_9QOzsnayQ-70" value="" style="verticalLabelPosition=bottom;shadow=0;dashed=0;align=center;html=1;verticalAlign=top;shape=mxgraph.electrical.abstract.amplifier;rotation=90;" parent="1" vertex="1">
          <mxGeometry x="388.66999999999996" y="651" width="60" height="72.82" as="geometry" />
        </mxCell>
        <mxCell id="RzOlGhgpHy_9QOzsnayQ-72" value="MAX31865&lt;br&gt;RTD sensor&lt;br&gt;amplifier" style="text;html=1;align=center;verticalAlign=middle;resizable=0;points=[];autosize=1;strokeColor=none;fillColor=none;fontStyle=1" parent="1" vertex="1">
          <mxGeometry x="460" y="657.4100000000001" width="90" height="60" as="geometry" />
        </mxCell>
        <mxCell id="RzOlGhgpHy_9QOzsnayQ-73" style="edgeStyle=orthogonalEdgeStyle;rounded=0;orthogonalLoop=1;jettySize=auto;html=1;entryX=0.5;entryY=1;entryDx=0;entryDy=0;entryPerimeter=0;" parent="1" source="RzOlGhgpHy_9QOzsnayQ-70" target="RzOlGhgpHy_9QOzsnayQ-43" edge="1">
          <mxGeometry relative="1" as="geometry" />
        </mxCell>
        <mxCell id="RzOlGhgpHy_9QOzsnayQ-74" value="3.3V" style="text;html=1;align=center;verticalAlign=middle;resizable=0;points=[];autosize=1;strokeColor=none;fillColor=none;fontStyle=1" parent="1" vertex="1">
          <mxGeometry x="669" y="521" width="50" height="30" as="geometry" />
        </mxCell>
        <mxCell id="RzOlGhgpHy_9QOzsnayQ-81" value="" style="endArrow=none;dashed=1;html=1;dashPattern=1 3;strokeWidth=4;rounded=0;fontSize=12;" parent="1" edge="1">
          <mxGeometry width="50" height="50" relative="1" as="geometry">
            <mxPoint x="160" y="880" as="sourcePoint" />
            <mxPoint x="1040" y="880" as="targetPoint" />
          </mxGeometry>
        </mxCell>
        <mxCell id="RzOlGhgpHy_9QOzsnayQ-82" value="" style="endArrow=none;dashed=1;html=1;dashPattern=1 3;strokeWidth=4;rounded=0;fontSize=12;jumpSize=6;" parent="1" edge="1">
          <mxGeometry width="50" height="50" relative="1" as="geometry">
            <mxPoint x="1040" y="882" as="sourcePoint" />
            <mxPoint x="1040" y="188" as="targetPoint" />
          </mxGeometry>
        </mxCell>
        <mxCell id="RzOlGhgpHy_9QOzsnayQ-84" value="" style="endArrow=none;dashed=1;html=1;dashPattern=1 3;strokeWidth=4;rounded=0;fontSize=12;jumpSize=6;" parent="1" edge="1">
          <mxGeometry width="50" height="50" relative="1" as="geometry">
            <mxPoint x="160" y="882" as="sourcePoint" />
            <mxPoint x="160" y="189" as="targetPoint" />
          </mxGeometry>
        </mxCell>
        <mxCell id="RzOlGhgpHy_9QOzsnayQ-85" value="" style="endArrow=none;dashed=1;html=1;dashPattern=1 3;strokeWidth=4;rounded=0;fontSize=12;jumpSize=6;" parent="1" edge="1">
          <mxGeometry width="50" height="50" relative="1" as="geometry">
            <mxPoint x="1040" y="190" as="sourcePoint" />
            <mxPoint x="150" y="190" as="targetPoint" />
          </mxGeometry>
        </mxCell>
        <mxCell id="RzOlGhgpHy_9QOzsnayQ-86" value="Electrical Diagram of the&lt;br&gt;Monitoring System" style="text;html=1;align=center;verticalAlign=middle;resizable=0;points=[];autosize=1;strokeColor=none;fillColor=none;fontSize=42;fontFamily=Times New Roman;" parent="1" vertex="1">
          <mxGeometry x="360" y="60" width="450" height="110" as="geometry" />
        </mxCell>
        <mxCell id="RzOlGhgpHy_9QOzsnayQ-89" value="5V" style="text;html=1;align=center;verticalAlign=middle;resizable=0;points=[];autosize=1;strokeColor=none;fillColor=none;fontStyle=1" parent="1" vertex="1">
          <mxGeometry x="560" y="320" width="40" height="30" as="geometry" />
        </mxCell>
        <mxCell id="RzOlGhgpHy_9QOzsnayQ-90" value="i" style="edgeStyle=none;orthogonalLoop=1;jettySize=auto;html=1;rounded=0;" parent="1" edge="1">
          <mxGeometry width="80" relative="1" as="geometry">
            <mxPoint x="580" y="430" as="sourcePoint" />
            <mxPoint x="660" y="430" as="targetPoint" />
            <Array as="points" />
          </mxGeometry>
        </mxCell>
      </root>
    </mxGraphModel>
  </diagram>
</mxfile>
